<?xml version="1.0" encoding="UTF-8" standalone="no"?>
<!-- Created with Inkscape (http://www.inkscape.org/) -->

<svg
   version="1.1"
   id="svg2"
   xml:space="preserve"
   width="722.66669"
   height="720"
   viewBox="0 0 722.66669 720"
   sodipodi:docname="output.svg"
   inkscape:version="1.1.2 (0a00cf5339, 2022-02-04)"
   xmlns:inkscape="http://www.inkscape.org/namespaces/inkscape"
   xmlns:sodipodi="http://sodipodi.sourceforge.net/DTD/sodipodi-0.dtd"
   xmlns="http://www.w3.org/2000/svg"
   xmlns:svg="http://www.w3.org/2000/svg"><sodipodi:namedview
     id="namedview113"
     pagecolor="#ffffff"
     bordercolor="#666666"
     borderopacity="1.0"
     inkscape:pageshadow="2"
     inkscape:pageopacity="0.0"
     inkscape:pagecheckerboard="0"
     showgrid="false"
     inkscape:zoom="0.7719249"
     inkscape:cx="192.37623"
     inkscape:cy="498.75318"
     inkscape:window-width="1920"
     inkscape:window-height="995"
     inkscape:window-x="0"
     inkscape:window-y="0"
     inkscape:window-maximized="1"
     inkscape:current-layer="g40" /><defs
     id="defs6"><clipPath
       clipPathUnits="userSpaceOnUse"
       id="clipPath16"><path
         d="M 0,0 H 960 V 540 H 0 Z"
         id="path14" /></clipPath><clipPath
       clipPathUnits="userSpaceOnUse"
       id="clipPath20"><path
         d="M 0,1.2207e-4 H 960 V 540.00012 H 0 Z"
         clip-rule="evenodd"
         id="path18" /></clipPath><clipPath
       clipPathUnits="userSpaceOnUse"
       id="clipPath24"><path
         d="M 1.5259e-5,1.2207e-4 H 960.00002 V 540.00012 H 1.5259e-5 Z"
         clip-rule="evenodd"
         id="path22" /></clipPath><clipPath
       clipPathUnits="userSpaceOnUse"
       id="clipPath24-3"><path
         d="M 1.5259e-5,1.2207e-4 H 960.00002 V 540.00012 H 1.5259e-5 Z"
         clip-rule="evenodd"
         id="path22-6" /></clipPath></defs><g
     id="g8"
     transform="matrix(1.3333333,0,0,-1.3333333,0,720)"><g
       id="g10"
       transform="translate(-209)"><g
         id="g12" /><g
         id="g42"><g
           clip-path="url(#clipPath16)"
           id="g40"><g
             id="g36"
             transform="translate(-1,1.35e-5)"><g
               clip-path="url(#clipPath24-3)"
               id="g34"><path
                 d="M 210,270 C 210,419.12 330.88,540 480,540 629.12,540 750,419.12 750,270 750,120.88 629.12,6.1035e-5 480,6.1035e-5 330.88,6.1035e-5 210,120.88 210,270 Z"
                 style="fill:#26a69a;fill-opacity:1;fill-rule:evenodd;stroke:none"
                 id="path32" /></g></g><path
             d="m 598.82,186.00001 h -49.76 l -14.14,110.16 -46.21,-110.16 h -19.74 l -44.1,110.16 -16.25,-110.16 h -49.61 l 32.51,191.31 h 49.2 l 38.69,-102.03 40.92,102.03 h 49.61 z"
             style="fill:#ffffff;fill-opacity:1;fill-rule:nonzero;stroke:none"
             id="path38" /></g></g></g></g></svg>
